<svg xmlns="http://www.w3.org/2000/svg" version="1.1" xmlns:xlink="http://www.w3.org/1999/xlink"
    xmlns:svgjs="http://svgjs.dev/svgjs" viewBox="0 0 1422 800">
    <defs>
        <filter id="llleaves-blur-2" x="-100%" y="-100%" width="400%" height="400%">
            <feGaussianBlur in="SourceGraphic" stdDeviation="2"></feGaussianBlur>
        </filter>
        <filter id="llleaves-blur-3" x="-100%" y="-100%" width="400%" height="400%">
            <feGaussianBlur in="SourceGraphic" stdDeviation="4"></feGaussianBlur>
        </filter>
        <filter id="llleaves-blur-4" x="-100%" y="-100%" width="400%" height="400%">
            <feGaussianBlur in="SourceGraphic" stdDeviation="12"></feGaussianBlur>
        </filter>
    </defs>
    <g fill="hsl(113, 48%, 46%)">
        <path d="M304 497H354C382 497 404 519 404 547H354C326 547 304 525 304 497Z "
            transform="matrix(0.12910213195015624,-0.517800369304516,0.517800369304516,0.12910213195015624,38.00605251268735,637.9100178558172)"
            opacity="0.82"></path>
        <path d="M6 141H56C84 141 106 163 106 191H56C28 191 6 169 6 141Z "
            transform="matrix(-0.3838610227847265,-0.11007037705617688,0.11007037705617688,-0.3838610227847265,59.22453468461933,235.88487089741048)"
            filter="url(#llleaves-blur-2)" opacity="0.61"></path>
        <path d="M127 623H177C205 623 227 645 227 673H177C149 673 127 651 127 623Z "
            transform="matrix(-0.17216991487264718,-0.4485179625039953,0.4485179625039953,-0.17216991487264718,-83.16556477013046,838.9537842006827)"
            opacity="0.74"></path>
        <path d="M1187 19H1237C1265 19 1287 41 1287 69H1237C1209 69 1187 47 1187 19Z "
            transform="matrix(0.027070198605619076,-0.5165301597577661,0.5165301597577661,0.027070198605619076,1180.7868372955074,681.7567188817094)"
            opacity="0.79"></path>
        <path d="M544 104H594C622 104 644 126 644 154H594C566 154 544 132 544 104Z "
            transform="matrix(-0.13462512395370663,-0.46949360178002975,0.46949360178002975,-0.13462512395370663,613.4026489988779,425.2458404473658)"
            opacity="0.75"></path>
        <path d="M450 638H500C528 638 550 660 550 688H500C472 688 450 666 450 638Z "
            transform="matrix(-0.017790983485988152,-0.5094671092569156,0.5094671092569156,-0.017790983485988152,171.11879830565903,929.528976679668)"
            opacity="0.78"></path>
        <path d="M1052 22H1102C1130 22 1152 44 1152 72H1102C1074 72 1052 50 1052 22Z "
            transform="matrix(0.21377573718983117,-0.503624076214381,0.503624076214381,0.21377573718983117,842.7488060347301,591.9462723403258)"
            opacity="0.84"></path>
        <path d="M6 607H56C84 607 106 629 106 657H56C28 657 6 635 6 607Z "
            transform="matrix(-0.3846670283196861,-0.10307121959313952,0.10307121959313952,-0.3846670283196861,12.40034280303825,880.8815501952574)"
            filter="url(#llleaves-blur-2)" opacity="0.61"></path>
        <path d="M1326 163H1376C1404 163 1426 185 1426 213H1376C1348 213 1326 191 1326 163Z "
            transform="matrix(-0.3833815615458642,-0.047073336692678935,0.047073336692678935,-0.3833815615458642,1894.6832413888856,324.8486448597487)"
            filter="url(#llleaves-blur-2)" opacity="0.59"></path>
        <path d="M184 23H234C262 23 284 45 284 73H234C206 73 184 51 184 23Z "
            transform="matrix(0.10093016947442643,-0.519240708702226,0.519240708702226,0.10093016947442643,185.45878632527737,164.65767770154844)"
            opacity="0.81"></path>
        <path d="M457 24H507C535 24 557 46 557 74H507C479 74 457 52 457 24Z "
            transform="matrix(0.04527712061376979,-0.5175198567338242,0.5175198567338242,0.04527712061376979,458.6860268688613,309.16398845397407)"
            opacity="0.80"></path>
        <path d="M1231 318H1281C1309 318 1331 340 1331 368H1281C1253 368 1231 346 1231 318Z "
            transform="matrix(-0.33081427054065476,-0.2875724580613405,0.2875724580613405,-0.33081427054065476,1606.135727447539,824.8496135720218)"
            opacity="0.67"></path>
        <path d="M176 722H226C254 722 276 744 276 772H226C198 772 176 750 176 722Z "
            transform="matrix(-0.017777137772695073,-0.5090706199041724,0.5090706199041724,-0.017777137772695073,-150.25811993178763,875.3294820145461)"
            opacity="0.78"></path>
        <path d="M671 728H721C749 728 771 750 771 778H721C693 778 671 756 671 728Z "
            transform="matrix(-0.2453605440629669,-0.39265895072826396,0.39265895072826396,-0.2453605440629669,602.2327623710164,1220.8635931544923)"
            opacity="0.71"></path>
        <path d="M1322 718H1372C1400 718 1422 740 1422 768H1372C1344 768 1322 746 1322 718Z "
            transform="matrix(-0.3833815615458642,-0.047073336692678935,0.047073336692678935,-0.3833815615458642,1863.0240132782653,1092.4371181709325)"
            filter="url(#llleaves-blur-2)" opacity="0.59"></path>
        <path d="M892 714H942C970 714 992 736 992 764H942C914 764 892 742 892 714Z "
            transform="matrix(-0.14208893334321002,-0.46475195968325633,0.46475195968325633,-0.14208893334321002,732.3960770033774,1281.8000677622597)"
            opacity="0.75"></path>
        <path d="M12 252H62C90 252 112 274 112 302H62C34 302 12 280 12 252Z "
            transform="matrix(-0.3645017840865134,-0.21044520316244741,0.21044520316244741,-0.3645017840865134,26.305789337365894,391.01459678803593)"
            opacity="0.65"></path>
        <path d="M410 132H460C488 132 510 154 510 182H460C432 182 410 160 410 132Z "
            transform="matrix(0.054550771661229756,-0.5190159228440195,0.5190159228440195,0.054550771661229756,353.42114514932325,387.18285335743593)"
            opacity="0.80"></path>
        <path d="M815 99H865C893 99 915 121 915 149H865C837 149 815 127 815 99Z "
            transform="matrix(-0.05268720043840052,-0.5012852270436191,0.5012852270436191,-0.05268720043840052,848.4150602258077,564.1449342470921)"
            opacity="0.77"></path>
        <path d="M88 424H138C166 424 188 446 188 474H138C110 474 88 452 88 424Z "
            transform="matrix(-0.2518425956072495,-0.38780358937172793,0.38780358937172793,-0.2518425956072495,-1.3695334341054206,615.5942207609535)"
            opacity="0.71"></path>
        <path d="M135 208H185C213 208 235 230 235 258H185C157 258 135 236 135 208Z "
            transform="matrix(-0.0946752905641477,-0.4870621462849403,0.4870621462849403,-0.0946752905641477,89.02944866997622,345.16583976416035)"
            opacity="0.76"></path>
        <path d="M22 25H72C100 25 122 47 122 75H72C44 75 22 53 22 25Z "
            transform="matrix(-0.3506401416050267,-0.24552087035075962,0.24552087035075962,-0.3506401416050267,84.97004667802395,85.20950974550604)"
            opacity="0.66"></path>
        <path d="M1324 489H1374C1402 489 1424 511 1424 539H1374C1346 539 1324 517 1324 489Z "
            transform="matrix(-0.3833815615458642,-0.047073336692678935,0.047073336692678935,-0.3833815615458642,1876.5705705039804,775.7368872503151)"
            filter="url(#llleaves-blur-2)" opacity="0.59"></path>
        <path d="M734 507H784C812 507 834 529 834 557H784C756 557 734 535 734 507Z "
            transform="matrix(-0.23980956415374924,-0.39911013729250483,0.39911013729250483,-0.23980956415374924,759.6841052569268,972.4810357671183)"
            opacity="0.72"></path>
        <path d="M1201 627H1251C1279 627 1301 649 1301 677H1251C1223 677 1201 655 1201 627Z "
            transform="matrix(-0.28471656261556905,-0.3515956735924004,0.3515956735924004,-0.28471656261556905,1377.9400406498319,1277.481386489444)"
            opacity="0.69"></path>
        <path d="M456 732H506C534 732 556 754 556 782H506C478 782 456 760 456 732Z "
            transform="matrix(-0.06110546077248242,-0.49766404117211016,0.49766404117211016,-0.06110546077248242,160.18768398358867,1055.0748386378568)"
            opacity="0.77"></path>
        <path d="M1248 106H1298C1326 106 1348 128 1348 156H1298C1270 156 1248 134 1248 106Z "
            transform="matrix(-0.2395671747537748,-0.39870673358738806,0.39870673358738806,-0.2395671747537748,1556.727610730452,679.9046400891742)"
            opacity="0.71"></path>
        <path d="M606 17H656C684 17 706 39 706 67H656C628 67 606 45 606 17Z "
            transform="matrix(-0.11894310641429667,-0.477054743381986,0.477054743381986,-0.11894310641429667,713.9903785857352,359.9435221279833)"
            opacity="0.76"></path>
        <path d="M823 371H873C901 371 923 393 923 421H873C845 421 823 399 823 371Z "
            transform="matrix(-0.1865679743967724,-0.4395266038695815,0.4395266038695815,-0.1865679743967724,861.821306516028,853.5876430392666)"
            opacity="0.73"></path>
        <path d="M963 238H1013C1041 238 1063 260 1063 288H1013C985 288 963 266 963 238Z "
            transform="matrix(-0.10272831084637353,-0.4832987043037099,0.4832987043037099,-0.10272831084637353,989.9562196555007,779.5991332122544)"
            opacity="0.76"></path>
        <path d="M340 216H390C418 216 440 238 440 266H390C362 266 340 244 340 216Z "
            transform="matrix(0.10103662992892766,-0.5197884002609724,0.5197884002609724,0.10103662992892766,225.32670986482384,419.36764828890773)"
            opacity="0.81"></path>
        <path d="M501 368H551C579 368 601 390 601 418H551C523 418 501 396 501 368Z "
            transform="matrix(-0.11088830307531018,-0.480310009511015,0.480310009511015,-0.11088830307531018,423.33762125666703,701.2299183491662)"
            opacity="0.76"></path>
        <path d="M849 261H899C927 261 949 283 949 311H899C871 311 849 289 849 261Z "
            transform="matrix(-0.16483097896052906,-0.4528693927206526,0.4528693927206526,-0.16483097896052906,917.6624037674089,740.271244038578)"
            opacity="0.74"></path>
        <path d="M894 584H944C972 584 994 606 994 634H944C916 634 894 612 894 584Z "
            transform="matrix(-0.14208893334321002,-0.46475195968325633,0.46475195968325633,-0.14208893334321002,795.0980096288871,1134.2580103470088)"
            opacity="0.75"></path>
        <path d="M1319 30H1369C1397 30 1419 52 1419 80H1369C1341 80 1319 58 1319 30Z "
            transform="matrix(-0.32989649577565144,-0.2867746486298207,0.2867746486298207,-0.32989649577565144,1804.855697042227,465.7388012418854)"
            opacity="0.67"></path>
        <path d="M-8 718H42C70 718 92 740 92 768H42C14 768 -8 746 -8 718Z "
            transform="matrix(-0.3846670283196861,-0.10307121959313952,0.10307121959313952,-0.3846670283196861,-18.42590096827584,1033.1365932644385)"
            filter="url(#llleaves-blur-2)" opacity="0.61"></path>
        <path d="M555 723H605C633 723 655 745 655 773H605C577 773 555 751 555 723Z "
            transform="matrix(-0.18662949108494467,-0.43967152810494975,0.43967152810494975,-0.18662949108494467,389.0365390838891,1153.6001338350334)"
            opacity="0.73"></path>
        <path d="M1081 211H1131C1159 211 1181 233 1181 261H1131C1103 261 1081 239 1081 211Z "
            transform="matrix(-0.13458100735583176,-0.46933974891938784,0.46933974891938784,-0.13458100735583176,1172.44693857447,798.584373763804)"
            opacity="0.75"></path>
        <path d="M1318 607H1368C1396 607 1418 629 1418 657H1368C1340 657 1318 635 1318 607Z "
            transform="matrix(-0.3833815615458642,-0.047073336692678935,0.047073336692678935,-0.3833815615458642,1862.7156274049692,938.693471492571)"
            filter="url(#llleaves-blur-2)" opacity="0.59"></path>
        <path d="M1132 315H1182C1210 315 1232 337 1232 365H1182C1154 365 1132 343 1132 315Z "
            transform="matrix(-0.16499421171780496,-0.4533178710353834,0.4533178710353834,-0.16499421171780496,1222.895082098415,931.9197555478769)"
            opacity="0.74"></path>
        <path d="M932 364H982C1010 364 1032 386 1032 414H982C954 414 932 392 932 364Z "
            transform="matrix(-0.11072580075192273,-0.4796061346177471,0.4796061346177471,-0.11072580075192273,904.1659499720845,903.0455606871257)"
            opacity="0.76"></path>
        <path d="M80 720H130C158 720 180 742 180 770H130C102 770 80 748 80 720Z "
            transform="matrix(-0.2518425956072495,-0.38780358937172793,0.38780358937172793,-0.2518425956072495,-126.17413665299489,983.0372003457255)"
            opacity="0.71"></path>
        <path d="M94 527H144C172 527 194 549 194 577H144C116 577 94 555 94 527Z "
            transform="matrix(-0.2518425956072495,-0.38780358937172793,0.38780358937172793,-0.2518425956072495,-33.802247565749894,746.8608296447305)"
            opacity="0.71"></path>
        <path d="M-5 488H45C73 488 95 510 95 538H45C17 538 -5 516 -5 488Z "
            transform="matrix(-0.3846670283196861,-0.10307121959313952,0.10307121959313952,-0.3846670283196861,9.434480623105308,714.9723904096902)"
            filter="url(#llleaves-blur-2)" opacity="0.61"></path>
        <path d="M321 34H371C399 34 421 56 421 84H371C343 84 321 62 321 34Z "
            transform="matrix(0.24198768537942322,-0.4961482809483136,0.4961482809483136,0.24198768537942322,251.9498201482835,228.79373879443835)"
            opacity="0.85"></path>
        <path d="M706 623H756C784 623 806 645 806 673H756C728 673 706 651 706 623Z "
            transform="matrix(-0.24564933920858534,-0.3931211195716166,0.3931211195716166,-0.24564933920858534,686.9684149592829,1104.3803382033052)"
            opacity="0.71"></path>
        <path d="M839 481H889C917 481 939 503 939 531H889C861 531 839 509 839 481Z "
            transform="matrix(-0.1865679743967724,-0.4395266038695815,0.4395266038695815,-0.1865679743967724,832.4584676807224,991.1425458848248)"
            opacity="0.73"></path>
        <path d="M243 621H293C321 621 343 643 343 671H293C265 671 243 649 243 621Z "
            transform="matrix(0.09157114757836392,-0.5193257844627067,0.5193257844627067,0.09157114757836392,-69.3148030033692,739.0074935119501)"
            opacity="0.81"></path>
        <path d="M424 529H474C502 529 524 551 524 579H474C446 579 424 557 424 529Z "
            transform="matrix(-0.017790983485988152,-0.5094671092569156,0.5094671092569156,-0.017790983485988152,200.18814764402708,805.3436146390154)"
            opacity="0.78"></path>
        <path d="M681 95H731C759 95 781 117 781 145H731C703 145 681 123 681 95Z "
            transform="matrix(-0.1796329848241139,-0.44460723917809297,0.44460723917809297,-0.1796329848241139,808.9588432050562,466.5638500180796)"
            opacity="0.74"></path>
        <path d="M948 473H998C1026 473 1048 495 1048 523H998C970 523 948 501 948 473Z "
            transform="matrix(-0.11072580075192273,-0.4796061346177471,0.4796061346177471,-0.11072580075192273,869.6604941107807,1031.7883711229692)"
            opacity="0.76"></path>
        <path d="M237 276H287C315 276 337 298 337 326H287C259 326 237 304 237 276Z "
            transform="matrix(0.09157114757836392,-0.5193257844627067,0.5193257844627067,0.09157114757836392,104.40201952173484,422.48358471970926)"
            opacity="0.81"></path>
        <path d="M193 413H243C271 413 293 435 293 463H243C215 463 193 441 193 413Z "
            transform="matrix(0.045304989855455016,-0.5178384036239245,0.5178384036239245,0.045304989855455016,5.177666677845451,543.9911465239244)"
            opacity="0.80"></path>
        <path d="M619 421H669C697 421 719 443 719 471H669C641 471 619 449 619 421Z "
            transform="matrix(-0.23352199135979437,-0.40447195371982375,0.40447195371982375,-0.23352199135979437,644.8317208606611,820.7425451850305)"
            opacity="0.72"></path>
        <path d="M784 721H834C862 721 884 743 884 771H834C806 771 784 749 784 721Z "
            transform="matrix(-0.20734530653153505,-0.42512087851504266,0.42512087851504266,-0.20734530653153505,689.7858102750783,1255.2304113540708)"
            opacity="0.73"></path>
    </g>
    <g fill="none" stroke-width="3" stroke="hsl(113, 48%, 46%)">
        <path d="M402 428H452C480 428 502 450 502 478H452C424 478 402 456 402 428Z "
            transform="matrix(0.027088027114236073,-0.5168703479676253,0.5168703479676253,0.027088027114236073,205.61394411503102,674.3545209986178)"
            opacity="0.80"></path>
        <path d="M1033 526H1083C1111 526 1133 548 1133 576H1083C1055 576 1033 554 1033 526Z "
            transform="matrix(-0.10276961968202614,-0.4834930470957086,0.4834930470957086,-0.10276961968202614,927.8948291658988,1131.2490304494488)"
            opacity="0.76"></path>
        <path d="M723 292H773C801 292 823 314 823 342H773C745 342 723 320 723 292Z "
            transform="matrix(-0.23980956415374924,-0.39911013729250483,0.39911013729250483,-0.23980956415374924,831.8548795691241,701.5317679638447)"
            opacity="0.72"></path>
        <path d="M803 607H853C881 607 903 629 903 657H853C825 657 803 635 803 607Z "
            transform="matrix(-0.20734530653153505,-0.42512087851504266,0.42512087851504266,-0.20734530653153505,761.1891512498925,1125.6703431012616)"
            opacity="0.73"></path>
        <path d="M456 265H506C534 265 556 287 556 315H506C478 315 456 293 456 265Z "
            transform="matrix(-0.06110546077248242,-0.49766404117211016,0.49766404117211016,-0.06110546077248242,392.59679121096417,559.5385884571076)"
            opacity="0.77"></path>
        <path d="M371 323H421C449 323 471 345 471 373H421C393 373 371 351 371 323Z "
            transform="matrix(0.0729706953953888,-0.5192134766376701,0.5192134766376701,0.0729706953953888,209.5930473686321,541.1950716668638)"
            opacity="0.81"></path>
        <path d="M600 308H650C678 308 700 330 700 358H650C622 358 600 336 600 308Z "
            transform="matrix(-0.2141021622476268,-0.42019915287856047,0.42019915287856047,-0.2141021622476268,649.2400875523967,677.425469399524)"
            opacity="0.72"></path>
        <path d="M271 724H321C349 724 371 746 371 774H321C293 774 271 752 271 724Z "
            transform="matrix(0.11965505343504602,-0.5182829771900835,0.5182829771900835,0.11965505343504602,-105.60322206802232,825.7472006551674)"
            opacity="0.82"></path>
        <path d="M1317 386H1367C1395 386 1417 408 1417 436H1367C1339 436 1317 414 1317 386Z "
            transform="matrix(-0.3833815615458642,-0.047073336692678935,0.047073336692678935,-0.3833815615458642,1871.7354532525053,632.9190730542423)"
            filter="url(#llleaves-blur-2)" opacity="0.59"></path>
        <path d="M1066 419H1116C1144 419 1166 441 1166 469H1116C1088 469 1066 447 1066 419Z "
            transform="matrix(-0.11071178474699397,-0.4795454246305444,0.4795454246305444,-0.11071178474699397,1026.6361832416835,1028.328726315353)"
            opacity="0.76"></path>
        <path d="M761 16H811C839 16 861 38 861 66H811C783 66 761 44 761 16Z "
            transform="matrix(-0.02658314867475606,-0.5072366934532169,0.5072366934532169,-0.02658314867475606,811.7622291436453,453.4588674862239)"
            opacity="0.78"></path>
        <path d="M1321 272H1371C1399 272 1421 294 1421 322H1371C1343 322 1321 300 1321 272Z "
            transform="matrix(-0.3833815615458642,-0.047073336692678935,0.047073336692678935,-0.3833815615458642,1882.6353398816545,475.4018683847845)"
            filter="url(#llleaves-blur-2)" opacity="0.59"></path>
        <path d="M522 475H572C600 475 622 497 622 525H572C544 525 522 503 522 475Z "
            transform="matrix(-0.14983611178006806,-0.46114813449986625,0.46114813449986625,-0.14983611178006806,427.1321886882658,838.6947888239574)"
            opacity="0.74"></path>
        <path d="M528 582H578C606 582 628 604 628 632H578C550 632 528 610 528 582Z "
            transform="matrix(-0.14983611178006806,-0.46114813449986625,0.46114813449986625,-0.14983611178006806,384.68835496746055,964.4941415914238)"
            opacity="0.74"></path>
        <path d="M1115 725H1165C1193 725 1215 747 1215 775H1165C1137 775 1115 753 1115 725Z "
            transform="matrix(-0.16499421171780496,-0.4533178710353834,0.4533178710353834,-0.16499421171780496,1017.2298533747052,1401.8609785445756)"
            opacity="0.74"></path>
        <path d="M638 198H688C716 198 738 220 738 248H688C660 248 638 226 638 198Z "
            transform="matrix(-0.24596653846691813,-0.3936287444973128,0.3936287444973128,-0.24596653846691813,769.4457684423389,548.6671142922739)"
            opacity="0.71"></path>
        <path d="M913 27H963C991 27 1013 49 1013 77H963C935 77 913 55 913 27Z "
            transform="matrix(0.1765399337399879,-0.5127091959118425,0.5127091959118425,0.1765399337399879,766.3311656209758,536.558879108625)"
            opacity="0.83"></path>
        <path d="M1004 724H1054C1082 724 1104 746 1104 774H1054C1026 774 1004 752 1004 724Z "
            transform="matrix(-0.10288806171784091,-0.4840502730636308,0.4840502730636308,-0.10288806171784091,799.8903625259449,1336.2521460357298)"
            opacity="0.76"></path>
        <path d="M630 533H680C708 533 730 555 730 583H680C652 583 630 561 630 533Z "
            transform="matrix(-0.23352199135979437,-0.40447195371982375,0.40447195371982375,-0.23352199135979437,613.0996039489985,963.3461997082454)"
            opacity="0.72"></path>
        <path d="M1133 114H1183C1211 114 1233 136 1233 164H1183C1155 164 1133 142 1133 114Z "
            transform="matrix(0.008972357234397738,-0.5140260016961243,0.5140260016961243,0.008972357234397738,1100.936087155946,745.8456023509339)"
            opacity="0.79"></path>
        <path d="M1007 119H1057C1085 119 1107 141 1107 169H1057C1029 169 1007 147 1007 119Z "
            transform="matrix(0.09170520526212322,-0.5200860633673909,0.5200860633673909,0.09170520526212322,885.1752049130314,680.5254194215864)"
            opacity="0.81"></path>
        <path d="M525 204H575C603 204 625 226 625 254H575C547 254 525 232 525 204Z "
            transform="matrix(-0.14983611178006806,-0.46114813449986625,0.46114813449986625,-0.14983611178006806,555.5528414730697,528.4726469350587)"
            opacity="0.74"></path>
        <path d="M1195 421H1245C1273 421 1295 443 1295 471H1245C1217 471 1195 449 1195 421Z "
            transform="matrix(-0.28471656261556905,-0.3515956735924004,0.3515956735924004,-0.28471656261556905,1442.660450034173,1010.7202005490824)"
            opacity="0.69"></path>
        <path d="M758 188H808C836 188 858 210 858 238H808C780 238 758 216 758 188Z "
            transform="matrix(-0.22732109395604283,-0.41009810927724377,0.41009810927724377,-0.22732109395604283,904.3245466404297,592.77866530865)"
            opacity="0.72"></path>
        <path d="M606 642H656C684 642 706 664 706 692H656C628 692 606 670 606 642Z "
            transform="matrix(-0.23352199135979437,-0.40447195371982375,0.40447195371982375,-0.23352199135979437,539.4076332009026,1088.0927698771873)"
            opacity="0.72"></path>
        <path d="M719 398H769C797 398 819 420 819 448H769C741 448 719 426 719 398Z "
            transform="matrix(-0.24564933920858534,-0.3931211195716166,0.3931211195716166,-0.24564933920858534,791.6141082726083,829.2198114358048)"
            opacity="0.71"></path>
        <path d="M1136 519H1186C1214 519 1236 541 1236 569H1186C1158 569 1136 547 1136 519Z "
            transform="matrix(-0.20053844496813192,-0.4300560830623836,0.4300560830623836,-0.20053844496813192,1189.888086546268,1163.1394285746505)"
            opacity="0.73"></path>
        <path d="M288 383H338C366 383 388 405 388 433H338C310 433 288 411 288 383Z "
            transform="matrix(0.12910213195015624,-0.517800369304516,0.517800369304516,0.12910213195015624,83.10092872460464,530.3428549892627)"
            opacity="0.82"></path>
        <path d="M121 318H171C199 318 221 340 221 368H171C143 368 121 346 121 318Z "
            transform="matrix(-0.17216991487264718,-0.4485179625039953,0.4485179625039953,-0.17216991487264718,46.59939430435229,478.75085238950123)"
            opacity="0.74"></path>
        <path d="M250 138H300C328 138 350 160 350 188H300C272 188 250 166 250 138Z "
            transform="matrix(0.14807060239750547,-0.5163835575092844,0.5163835575092844,0.14807060239750547,171.40829940673498,293.7795590619919)"
            opacity="0.83"></path>
        <path d="M1206 210H1256C1284 210 1306 232 1306 260H1256C1228 260 1206 238 1206 210Z "
            transform="matrix(-0.28471656261556905,-0.3515956735924004,0.3515956735924004,-0.28471656261556905,1530.9790193509407,743.5125582467136)"
            opacity="0.69"></path>
        <path d="M361 716H411C439 716 461 738 461 766H411C383 766 361 744 361 716Z "
            transform="matrix(0.10103662992892766,-0.5197884002609724,0.5197884002609724,0.10103662992892766,-15.689259494169846,879.7648897299243)"
            opacity="0.81"></path>
        <path d="M118 102H168C196 102 218 124 218 152H168C140 152 118 130 118 102Z "
            transform="matrix(-0.1266347485077375,-0.4726073154345837,0.4726073154345837,-0.1266347485077375,129.25350868910778,222.48064205349272)"
            opacity="0.75"></path>
        <path d="M1222 725H1272C1300 725 1322 747 1322 775H1272C1244 775 1222 753 1222 725Z "
            transform="matrix(-0.28471656261556905,-0.3515956735924004,0.3515956735924004,-0.28471656261556905,1370.4627124527035,1410.7671187712099)"
            opacity="0.69"></path>
        <path d="M1 364H51C79 364 101 386 101 414H51C23 414 1 392 1 364Z "
            transform="matrix(-0.3846670283196861,-0.10307121959313952,0.10307121959313952,-0.3846670283196861,30.523314022572723,543.8921062156079)"
            filter="url(#llleaves-blur-2)" opacity="0.61"></path>
        <path d="M1088 624H1138C1166 624 1188 646 1188 674H1138C1110 674 1088 652 1088 624Z "
            transform="matrix(-0.13458100735583176,-0.46933974891938784,0.46933974891938784,-0.13458100735583176,986.5516893222538,1270.4517080441983)"
            opacity="0.75"></path>
        <path d="M1029 319H1079C1107 319 1129 341 1129 369H1079C1051 369 1029 347 1029 319Z "
            transform="matrix(-0.10276961968202614,-0.4834930470957086,0.4834930470957086,-0.10276961968202614,1023.5668114359825,901.0417469868867)"
            opacity="0.76"></path>
        <path d="M980 620H1030C1058 620 1080 642 1080 670H1030C1002 670 980 648 980 620Z "
            transform="matrix(-0.10272831084637353,-0.4832987043037099,0.4832987043037099,-0.10272831084637353,824.0824958958718,1209.057425928732)"
            opacity="0.76"></path>
        <path d="M1237 526H1287C1315 526 1337 548 1337 576H1287C1259 576 1237 554 1237 526Z "
            transform="matrix(-0.33081427054065476,-0.2875724580613405,0.2875724580613405,-0.33081427054065476,1554.305541794024,1103.384416592846)"
            opacity="0.67"></path>
        <path d="M900 152H950C978 152 1000 174 1000 202H950C922 202 900 180 900 152Z "
            transform="matrix(-0.03533748302723534,-0.5053495511247128,0.5053495511247128,-0.03533748302723534,894.1237383267994,663.3368080642979)"
            opacity="0.78"></path>
        <path d="M199 525H249C277 525 299 547 299 575H249C221 575 199 553 199 525Z "
            transform="matrix(0.045304989855455016,-0.5178384036239245,0.5178384036239245,0.045304989855455016,-47.092064467166836,654.024018081857)"
            opacity="0.80"></path>
        <path d="M344 603H394C422 603 444 625 444 653H394C366 653 344 631 344 603Z "
            transform="matrix(0.10103662992892766,-0.5197884002609724,0.5197884002609724,0.10103662992892766,27.764452444111782,769.3456261074566)"
            opacity="0.81"></path>
    </g>
</svg>